<svg width="25" height="25" viewBox="0 0 25 25" fill="none" xmlns="http://www.w3.org/2000/svg">
  <path d="M23.057 11.427L13.574 1.944C12.982 1.352 12.021 1.352 11.429 1.944L1.94595 11.427C1.35395 12.019 1.35395 12.98 1.94595 13.572L11.429 23.055C12.021 23.647 12.982 23.647 13.574 23.055L23.057 13.572C23.649 12.98 23.649 12.02 23.057 11.427ZM13.001 17.5H12.001C11.725 17.5 11.501 17.276 11.501 17V16C11.501 15.724 11.725 15.5 12.001 15.5H13.001C13.277 15.5 13.501 15.724 13.501 16V17C13.501 17.276 13.277 17.5 13.001 17.5ZM12.501 13.5C11.949 13.5 11.501 13.052 11.501 12.5V8.5C11.501 7.948 11.949 7.5 12.501 7.5C13.053 7.5 13.501 7.948 13.501 8.5V12.5C13.501 13.052 13.053 13.5 12.501 13.5Z" fill="#ED1651"/>
</svg>
