<svg width="694" height="64" viewBox="0 0 694 64" fill="none" xmlns="http://www.w3.org/2000/svg">
  <path d="M646.438 54.5938V9.34375H655.812V28.0938H675.438V9.34375H684.875V54.5938H675.438V35.8438H655.812V54.5938H646.438Z" fill="#212875"/>
  <path d="M608.562 54.5938V9.34375H626.312C636.594 9.34375 642.5 15.6875 642.5 24.5938C642.5 33.625 636.5 39.8438 626.062 39.8438H617.938V54.5938H608.562ZM617.938 32.2812H624.562C630.125 32.2812 632.844 29.1562 632.812 24.5938C632.844 20.0938 630.125 17.0625 624.562 17.0312H617.938V32.2812Z" fill="#212875"/>
  <path d="M572.188 54.5938H562.062L577.75 9.34375H589.812L605.438 54.5938H595.375L591.969 44.1562H575.594L572.188 54.5938ZM577.969 36.8438H589.594L583.938 19.5312H583.625L577.969 36.8438Z" fill="#212875"/>
  <path d="M526.188 54.5938V9.34375H543.938C554.219 9.34375 560.125 15.125 560.125 24.0938C560.125 30.2812 557.281 34.7812 552.125 37L561.75 54.5938H551.375L542.719 38.5312H535.562V54.5938H526.188ZM535.562 30.9062H542.188C547.75 30.9062 550.469 28.625 550.438 24.0938C550.469 19.5312 547.75 17.0625 542.188 17.0312H535.562V30.9062Z" fill="#212875"/>
  <path d="M511.375 23.9062C510.094 19.6562 506.688 17.0625 501.75 17.0312C494.75 17.0625 490 22.4062 490 31.9062C490 41.4688 494.594 46.875 501.812 46.9062C508.281 46.875 512.125 43.2188 512.25 37.5312H502.438V30.4688H521.312V36.0938C521.312 47.9688 513.156 55.2188 501.75 55.2188C489.062 55.2188 480.438 46.3438 480.438 32.0312C480.438 17.3438 489.625 8.71875 501.562 8.71875C511.781 8.71875 519.625 15 520.875 23.9062H511.375Z" fill="#212875"/>
  <path d="M475.688 9.34375V54.5938H467.562L447.688 25.8438H447.312V54.5938H437.938V9.34375H446.188L465.938 38.0938H466.375V9.34375H475.688Z" fill="#212875"/>
  <path d="M402.25 54.5938V9.34375H432.625V17.0938H411.625V28.0938H431.062V35.8438H411.625V46.8438H432.688V54.5938H402.25Z" fill="#212875"/>
  <path d="M364.375 54.5938V9.34375H382.125C392.406 9.34375 398.312 15.6875 398.312 24.5938C398.312 33.625 392.312 39.8438 381.875 39.8438H373.75V54.5938H364.375ZM373.75 32.2812H380.375C385.938 32.2812 388.656 29.1562 388.625 24.5938C388.656 20.0938 385.938 17.0625 380.375 17.0312H373.75V32.2812Z" fill="#212875"/>
  <path d="M359.625 31.9688C359.625 46.75 350.469 55.2188 338.5 55.2188C326.438 55.2188 317.312 46.6875 317.312 31.9688C317.312 17.1875 326.438 8.71875 338.5 8.71875C350.469 8.71875 359.625 17.1875 359.625 31.9688ZM326.875 31.9688C326.875 41.625 331.469 46.875 338.5 46.9062C345.469 46.875 350.094 41.625 350.062 31.9688C350.094 22.2812 345.469 17.0625 338.5 17.0312C331.469 17.0625 326.875 22.2812 326.875 31.9688Z" fill="#212875"/>
  <path d="M289.562 55.2812C280.188 55.25 274.438 49.7188 274.438 42.5938C274.438 37.3125 277.781 34.125 282.719 30.7188C280.344 27.6875 278.375 24.3438 278.375 20.3438C278.375 13.7812 283.281 8.75 290.688 8.71875C297.938 8.75 302.406 13.625 302.375 19.3438C302.406 23.625 300.188 27.0625 296.375 29.7812L293.719 31.7188L301.281 40.4062C302.469 38.1875 303.188 35.5312 303.188 32.5938H310.875C310.906 38.7188 309.312 43.4688 306.812 46.7812L313.625 54.5938H303.938L301.156 51.4688C297.844 54.125 293.531 55.25 289.562 55.2812ZM283.438 42.0938C283.438 45.3438 286 47.8125 290 47.7812C292.094 47.7812 294.219 47.125 296.156 45.9062L287.5 36.25L287.188 36.4688C284.625 38.3125 283.438 40.3438 283.438 42.0938ZM286.312 20.4688C286.344 22.3438 287.531 24.25 289.25 26.4375L291.625 24.8438C293.906 23.4062 294.969 21.8125 294.938 19.8438C294.969 18.0938 293.406 16.1875 290.75 16.2188C288.094 16.2188 286.344 18.1562 286.312 20.4688Z" fill="#212875"/>
  <path d="M250.062 55.2812C240.688 55.25 234.938 49.7188 234.938 42.5938C234.938 37.3125 238.281 34.125 243.219 30.7188C240.844 27.6875 238.875 24.3438 238.875 20.3438C238.875 13.7812 243.781 8.75 251.188 8.71875C258.438 8.75 262.906 13.625 262.875 19.3438C262.906 23.625 260.688 27.0625 256.875 29.7812L254.219 31.7188L261.781 40.4062C262.969 38.1875 263.688 35.5312 263.688 32.5938H271.375C271.406 38.7188 269.812 43.4688 267.312 46.7812L274.125 54.5938H264.438L261.656 51.4688C258.344 54.125 254.031 55.25 250.062 55.2812ZM243.938 42.0938C243.938 45.3438 246.5 47.8125 250.5 47.7812C252.594 47.7812 254.719 47.125 256.656 45.9062L248 36.25L247.688 36.4688C245.125 38.3125 243.938 40.3438 243.938 42.0938ZM246.812 20.4688C246.844 22.3438 248.031 24.25 249.75 26.4375L252.125 24.8438C254.406 23.4062 255.469 21.8125 255.438 19.8438C255.469 18.0938 253.906 16.1875 251.25 16.2188C248.594 16.2188 246.844 18.1562 246.812 20.4688Z" fill="#212875"/>
  <path d="M197.312 54.5938H187.188L202.875 9.34375H214.938L230.562 54.5938H220.5L217.094 44.1562H200.719L197.312 54.5938ZM203.094 36.8438H214.719L209.062 19.5312H208.75L203.094 36.8438Z" fill="#212875"/>
  <path d="M154.438 17.0938V9.34375H191.5V17.0938H177.625V54.5938H168.312V17.0938H154.438Z" fill="#212875"/>
  <path d="M120.5 54.5938V9.34375H150.875V17.0938H129.875V28.0938H149.312V35.8438H129.875V46.8438H150.938V54.5938H120.5Z" fill="#212875"/>
  <path d="M66 9.34375H77.625L90.1875 40.0312H90.6875L103.25 9.34375H114.875V54.5938H105.75V24.9688H105.375L93.5625 54.4062H87.3125L75.5 24.8438H75.125V54.5938H66V9.34375Z" fill="#212875"/>
  <path d="M14.3932 9.36523C11.6142 9.36523 9.36328 11.6161 9.36328 14.3952V49.6048C9.36328 52.3538 11.6442 54.6348 14.3932 54.6348H49.6029C52.3519 54.6348 54.6328 52.3538 54.6328 49.6048V14.3952C54.6328 11.6161 52.3819 9.36523 49.6029 9.36523H14.3932ZM14.3932 19.4251H49.6029V49.6048H14.3932V19.4251ZM26.9681 27.1862C26.5129 27.1862 26.0577 27.3598 25.7106 27.7069L20.6807 32.7368C19.6973 33.7176 19.6973 35.3098 20.6807 36.2931L25.7106 41.3231C26.4047 42.0172 27.5315 42.0172 28.2256 41.3231C28.9197 40.629 28.9197 39.5022 28.2256 38.8081L23.9324 34.515L28.2256 30.2218C28.9197 29.5277 28.9197 28.401 28.2256 27.7069C27.8785 27.3598 27.4233 27.1862 26.9681 27.1862ZM37.028 27.1862C36.5728 27.1862 36.1176 27.3598 35.7705 27.7069C35.0764 28.401 35.0764 29.5277 35.7705 30.2218L40.0636 34.515L35.7705 38.8081C35.0764 39.5022 35.0764 40.629 35.7705 41.3231C36.4646 42.0172 37.5913 42.0172 38.2855 41.3231L43.3154 36.2931C44.2988 35.3098 44.2988 33.7176 43.3154 32.7368L38.2855 27.7069C37.9384 27.3598 37.4832 27.1862 37.028 27.1862Z" fill="#212875"/>
  <path d="M9.36328 24.3372H14.3932V31.8821H9.36328V24.3372Z" fill="white"/>
  <path d="M49.6029 36.9121H54.6328V44.457H49.6029V36.9121Z" fill="white"/>
  <path d="M9.36328 31.588C9.36328 30.199 10.4893 29.073 11.8783 29.073C13.2672 29.073 14.3932 30.199 14.3932 31.588C14.3932 32.977 13.2672 34.103 11.8783 34.103C10.4893 34.103 9.36328 32.977 9.36328 31.588Z" fill="#212875"/>
  <path d="M49.6029 44.1629C49.6029 42.7739 50.7289 41.6479 52.1178 41.6479C53.5068 41.6479 54.6328 42.7739 54.6328 44.1629C54.6328 45.5519 53.5068 46.6778 52.1178 46.6778C50.7289 46.6778 49.6029 45.5519 49.6029 44.1629Z" fill="#212875"/>
  <path d="M9.36328 24.0431C9.36328 22.6541 10.4893 21.5281 11.8783 21.5281C13.2672 21.5281 14.3932 22.6541 14.3932 24.0431C14.3932 25.4321 13.2672 26.5581 11.8783 26.5581C10.4893 26.5581 9.36328 25.4321 9.36328 24.0431Z" fill="#212875"/>
  <path d="M49.6029 36.6179C49.6029 35.229 50.7289 34.103 52.1178 34.103C53.5068 34.103 54.6328 35.229 54.6328 36.6179C54.6328 38.0069 53.5068 39.1329 52.1178 39.1329C50.7289 39.1329 49.6029 38.0069 49.6029 36.6179Z" fill="#212875"/>
</svg>
