<svg width="25" height="25" viewBox="0 0 25 25" fill="none" xmlns="http://www.w3.org/2000/svg">
  <path d="M5.5 3.5C4.395 3.5 3.5 4.395 3.5 5.5V19.5C3.5 20.605 4.395 21.5 5.5 21.5H10.0176L10 21.5176L11.6152 23.1348C12.1032 23.6228 12.8968 23.6228 13.3848 23.1348L15 21.5176L14.9824 21.5H19.5C20.605 21.5 21.5 20.605 21.5 19.5V5.5C21.5 4.395 20.605 3.5 19.5 3.5H5.5ZM12 7.5H13C13.276 7.5 13.5 7.724 13.5 8V9C13.5 9.276 13.276 9.5 13 9.5H12C11.724 9.5 11.5 9.276 11.5 9V8C11.5 7.724 11.724 7.5 12 7.5ZM12.5 11.5C13.052 11.5 13.5 11.948 13.5 12.5V16.5C13.5 17.052 13.052 17.5 12.5 17.5C11.948 17.5 11.5 17.052 11.5 16.5V12.5C11.5 11.948 11.948 11.5 12.5 11.5Z" fill="#26348E"/>
</svg>
